# xmcd CD database file
#
# Track frame offsets:
#	150
#	21122
#	39320
#	53538
#	74501
#	90073
#	106500
#	118539
#	136994
#	152720
#
# Disc length: 2258 seconds
#
# Revision: 0
# Processed by: cddbd v1.4PL0 Copyright (c) Steve Scherf et al.
# Submitted via: CDex 1.50
#
DISCID=6c08d00a
DTITLE=Various Artist - Best Of The Real West
DYEAR=2002
DGENRE=Country
TTITLE0=Michael Martin Murphey/Carolina In The Pines
TTITLE1=Benn Hill/Call You Cowboy
TTITLE2=Joni Harms/After All
TTITLE3=R W Hampton/Back Home To Lisa
TTITLE4=Cowboy Nation/Cowboy Nation
TTITLE5=Brenn Hill/Fall Comin' On
TTITLE6=Joni Harms/Every Cowgirl's Dream
TTITLE7=R W Hampton/Adobe Walls
TTITLE8=Cowboy Nation/Cowboy Way
TTITLE9=Michael Martin Murphey/Cowboy Logic
EXTD=YEAR: 2002
EXTT0=
EXTT1=
EXTT2=
EXTT3=
EXTT4=
EXTT5=
EXTT6=
EXTT7=
EXTT8=
EXTT9=
PLAYORDER=
